HIERARCHY
ROOT Hips
{
	OFFSET -224.215500 91.524040 295.415894
	CHANNELS 6 Xposition Yposition Zposition Zrotation Yrotation Xrotation 
	JOINT LeftUpLeg
	{
		OFFSET 0.103456 1.857823 10.548498
		CHANNELS 3 Zrotation Yrotation Xrotation
		JOINT LeftLeg
		{
			OFFSET 43.500000 -0.000019 -0.000002
			CHANNELS 3 Zrotation Yrotation Xrotation
			JOINT LeftFoot
			{
				OFFSET 42.372204 0.000027 -0.000005
				CHANNELS 3 Zrotation Yrotation Xrotation
				JOINT LeftToe
				{
					OFFSET 17.299999 -0.000001 0.000000
					CHANNELS 3 Zrotation Yrotation Xrotation
					End Site
					{
						OFFSET 0.000000 0.000000 0.000000
					}
				}
			}
		}
	}
	JOINT RightUpLeg
	{
		OFFSET 0.103456 1.857824 -10.548502
		CHANNELS 3 Zrotation Yrotation Xrotation
		JOINT RightLeg
		{
			OFFSET 43.500038 -0.000015 0.000017
			CHANNELS 3 Zrotation Yrotation Xrotation
			JOINT RightFoot
			{
				OFFSET 42.372261 -0.000015 0.000015
				CHANNELS 3 Zrotation Yrotation Xrotation
				JOINT RightToe
				{
					OFFSET 17.299984 -0.000007 -0.000002
					CHANNELS 3 Zrotation Yrotation Xrotation
					End Site
					{
						OFFSET 0.000000 0.000000 0.000000
					}
				}
			}
		}
	}
	JOINT Spine
	{
		OFFSET 6.901968 -2.603745 -0.000005
		CHANNELS 3 Zrotation Yrotation Xrotation
		JOINT Spine1
		{
			OFFSET 12.588100 0.000014 0.000013
			CHANNELS 3 Zrotation Yrotation Xrotation
			JOINT Spine2
			{
				OFFSET 12.343204 0.000008 -0.000010
				CHANNELS 3 Zrotation Yrotation Xrotation
				JOINT Neck
				{
					OFFSET 25.832903 0.000002 0.000010
					CHANNELS 3 Zrotation Yrotation Xrotation
					JOINT Head
					{
						OFFSET 11.766598 0.000015 -0.000000
						CHANNELS 3 Zrotation Yrotation Xrotation
						End Site
						{
							OFFSET 0.000000 0.000000 0.000000
						}
					}
				}
				JOINT LeftShoulder
				{
					OFFSET 19.745903 -1.480366 6.000109
					CHANNELS 3 Zrotation Yrotation Xrotation
					JOINT LeftArm
					{
						OFFSET 11.284134 0.000001 -0.000017
						CHANNELS 3 Zrotation Yrotation Xrotation
						JOINT LeftForeArm
						{
							OFFSET 33.000042 0.000010 0.000015
							CHANNELS 3 Zrotation Yrotation Xrotation
							JOINT LeftHand
							{
								OFFSET 25.200022 0.000012 0.000000
								CHANNELS 3 Zrotation Yrotation Xrotation
								End Site
								{
									OFFSET 0.000000 0.000000 0.000000
								}
							}
						}
					}
				}
				JOINT RightShoulder
				{
					OFFSET 19.746094 -1.480373 -6.000069
					CHANNELS 3 Zrotation Yrotation Xrotation
					JOINT RightArm
					{
						OFFSET 11.284146 -0.000006 -0.000018
						CHANNELS 3 Zrotation Yrotation Xrotation
						JOINT RightForeArm
						{
							OFFSET 33.000103 0.000006 0.000016
							CHANNELS 3 Zrotation Yrotation Xrotation
							JOINT RightHand
							{
								OFFSET 25.199755 0.000126 0.000423
								CHANNELS 3 Zrotation Yrotation Xrotation
								End Site
								{
									OFFSET 0.000000 0.000000 0.000000
								}
							}
						}
					}
				}
			}
		}
	}
}
MOTION
Frames: 8
Frame Time: 0.033333
-224.215500 91.524040 295.415894 89.762913 -1.645378 91.870218 169.485503 -6.072398 171.371236 -21.832153 2.050852 -2.152330 82.119720 0.011214 -6.398092 21.454550 0.003084 -0.000002 170.869873 2.048998 -170.642359 -21.883253 -3.294153 5.105551 87.436530 -2.231992 7.087276 21.454560 -0.003106 -0.000016 5.656319 0.260410 0.113942 1.257499 0.519542 0.247671 0.939389 0.521112 0.244173 7.093872 8.960889 3.675916 -29.740098 -5.600771 8.150700 -71.043366 -83.250608 -111.359657 3.746132 20.201801 -14.120614 -50.187684 -27.949740 2.641577 7.033852 -7.492960 13.144567 -98.122245 86.677040 83.863330 -5.411469 -17.255481 25.572184 -36.204698 14.226431 -1.322908 4.957315 9.978172 -7.113814 
-224.213104 91.525101 295.416992 89.762899 -1.641775 91.878878 169.490584 -6.069305 171.380402 -21.826826 2.050858 -2.152850 82.117151 0.011207 -6.395422 21.454553 0.003083 -0.000002 170.877714 2.048987 -170.648807 -21.883245 -3.294160 5.114636 87.431681 -2.237382 7.090897 21.454557 -0.003104 -0.000019 5.656320 0.262373 0.113943 1.257504 0.523473 0.247677 0.939389 0.525047 0.244164 7.119342 8.948781 3.679275 -29.745604 -5.600780 8.148676 -71.090521 -83.247473 -111.312959 3.753314 20.211699 -14.112656 -50.188090 -27.947964 2.641565 7.033851 -7.486650 13.150138 -98.112505 86.676986 83.873330 -5.407051 -17.264399 25.568557 -36.204698 14.226430 -1.322901 4.963469 9.978170 -7.110811 
-224.199600 91.528313 295.420990 89.766772 -1.617269 91.930815 169.514818 -6.052997 171.409662 -21.811168 2.050851 -2.140422 82.108921 0.007251 -6.373958 21.454550 0.003088 -0.000002 170.916536 2.055401 -170.677657 -21.883246 -3.294160 5.162604 87.416839 -2.266467 7.110083 21.454560 -0.003108 -0.000017 5.656318 0.271260 0.113941 1.265641 0.541206 0.247671 0.947528 0.542792 0.244171 7.225498 8.938023 3.699432 -29.762529 -5.611081 8.166623 -71.296411 -83.226531 -111.108900 3.775572 20.254851 -14.062354 -50.178097 -27.937608 2.641577 7.030530 -7.423183 13.164961 -98.238536 86.644795 83.749396 -5.391105 -17.307464 25.523090 -36.208277 14.226438 -1.322896 4.977297 9.972081 -7.097535 
-224.185196 91.528473 295.421204 89.776327 -1.591967 91.988298 169.529134 -6.034105 171.398857 -21.810093 2.050852 -2.102299 82.106093 -0.012944 -6.345691 21.454553 0.003097 0.000000 170.946316 2.074407 -170.687179 -21.893149 -3.294153 5.201270 87.417078 -2.290629 7.125369 21.454560 -0.003104 -0.000017 5.656318 0.276991 0.113937 1.277460 0.552663 0.247681 0.959350 0.554260 0.244169 7.300328 9.007423 3.716523 -29.772969 -5.659943 8.215345 -71.338990 -83.219763 -111.066956 3.799694 20.280268 -14.012557 -50.153352 -27.924865 2.641575 7.050756 -7.346283 13.161465 -98.630589 86.584191 83.361250 -5.380722 -17.344622 25.464281 -36.226709 14.226431 -1.322907 4.960880 9.951832 -7.095685 
-224.169800 91.527679 295.416901 89.788410 -1.574039 92.042898 169.532590 -6.010493 171.377246 -21.811490 2.050862 -2.060937 82.104270 -0.035765 -6.318182 21.454553 0.003094 0.000000 170.965809 2.097797 -170.687998 -21.903242 -3.294160 5.232921 87.422945 -2.310654 7.138463 21.454560 -0.003120 -0.000019 5.656323 0.283084 0.113940 1.283390 0.564833 0.247682 0.965274 0.566451 0.244161 7.401324 9.059143 3.733193 -29.811098 -5.681201 8.247138 -71.314415 -83.242801 -111.089216 3.865908 20.294008 -13.970523 -50.136601 -27.911174 2.641573 7.084485 -7.314158 13.153558 -98.973143 86.545887 83.020622 -5.371416 -17.382340 25.443413 -36.218895 14.225513 -1.322919 4.934906 9.939193 -7.108976 
-224.154297 91.524780 295.409210 89.805301 -1.559028 92.083565 169.533232 -5.982290 171.387177 -21.816396 2.047730 -2.045916 82.102842 -0.041241 -6.296007 21.454553 0.003097 0.000001 170.981437 2.123003 -170.693285 -21.907994 -3.294158 5.259606 87.440737 -2.328372 7.148972 21.454555 -0.003104 -0.000017 5.656318 0.290842 0.113937 1.285230 0.580342 0.247681 0.967121 0.581962 0.244175 7.525800 9.028977 3.745483 -29.882139 -5.646671 8.234036 -71.347070 -83.287819 -111.051923 3.961005 20.300398 -13.956295 -50.144961 -27.900809 2.641568 7.115044 -7.307291 13.171638 -99.037381 86.541072 82.956739 -5.361765 -17.420181 25.455919 -36.185468 14.214058 -1.322916 4.929817 9.915982 -7.117851 
-224.140305 91.519402 295.399689 89.824917 -1.541210 92.106481 169.536142 -5.957510 171.413993 -21.830357 2.030366 -2.049769 82.101148 -0.033739 -6.276658 21.454548 0.003078 -0.000003 171.003567 2.147707 -170.705511 -21.900093 -3.293422 5.279789 87.471719 -2.343476 7.153226 21.454557 -0.003113 -0.000017 5.656320 0.299021 0.113948 1.289861 0.596660 0.253582 0.971743 0.598321 0.249976 7.630252 8.948925 3.748216 -29.961240 -5.585947 8.191968 -71.454147 -83.326764 -110.940816 4.032422 20.303292 -13.979987 -50.173449 -27.897722 2.641571 7.125531 -7.305717 13.190328 -98.914274 86.549343 83.079477 -5.341317 -17.465135 25.469832 -36.163253 14.200003 -1.322905 4.941842 9.873945 -7.117007 
-224.127808 91.517677 295.388885 89.836037 -1.523530 92.117839 169.545198 -5.943206 171.440699 -21.834937 2.009693 -2.059840 82.098662 -0.022524 -6.259253 21.454551 0.003105 0.000002 171.029713 2.165003 -170.733829 -21.879811 -3.282497 5.298039 87.482934 -2.356881 7.155897 21.454558 -0.003106 -0.000018 5.656315 0.306741 0.113946 1.299236 0.612039 0.264472 0.981129 0.613754 0.260786 7.663804 8.900724 3.744078 -29.995414 -5.548634 8.160938 -71.580608 -83.309067 -110.815981 4.015498 20.318802 -14.027133 -50.206620 -27.903917 2.641582 7.128947 -7.306519 13.218089 -98.938043 86.535130 83.056972 -5.329936 -17.522700 25.462660 -36.169970 14.195642 -1.322900 4.945041 9.842647 -7.105025 
